<svg width="223" height="109" viewBox="0 0 223 109" fill="none" xmlns="http://www.w3.org/2000/svg">
<path d="M191.603 56.7953C181.423 56.2953 171.983 55.7953 162.543 55.3853C160.883 55.3153 159.203 55.5553 157.533 55.6953C155.993 55.8253 154.443 55.9253 152.913 56.1653C150.813 56.4853 148.753 57.0653 146.643 57.2753C144.653 57.4753 142.623 57.2453 140.623 57.3653C135.053 57.7053 129.493 58.2353 123.923 58.4353C122.383 58.4953 120.823 57.3953 119.253 57.3253C114.253 57.0953 109.163 56.5753 104.243 57.1953C100.443 57.6653 98.1528 57.7153 98.1928 53.1553C98.1928 52.8353 97.1728 52.5153 96.1428 51.9153C96.5728 56.1253 93.7628 55.8953 91.2528 57.2953C86.0128 60.2353 82.2428 58.1453 77.7028 56.6953C75.8028 56.0853 73.3228 57.4553 71.0828 57.7453C68.2428 58.1253 65.3828 58.3153 62.5228 58.6153C61.5128 58.7253 60.5128 59.0153 59.5028 59.0353C57.7928 59.0753 56.0828 59.0353 54.3828 58.8953C53.0028 58.7853 51.6328 58.2453 50.2728 58.2953C43.9528 58.5453 37.6228 58.7753 31.3228 59.3353C24.5728 59.9453 17.8428 58.9653 10.9828 60.2053C7.73284 60.7953 3.63284 56.9853 0.0728364 54.8953C-0.207164 54.7353 0.352835 51.7853 1.19284 51.3153C6.98284 48.0653 12.7328 44.2153 19.9728 47.2053C20.5728 47.4553 21.7828 46.5753 22.5528 46.0153C28.4328 41.6853 34.9428 41.7553 41.7328 42.8953C43.2528 43.1553 45.6128 43.1053 46.3928 42.1853C49.2128 38.8853 52.0328 40.4853 55.3128 40.9353C59.2828 41.4853 63.5128 41.1053 67.5128 40.4053C80.0928 38.2153 92.6528 38.3053 105.283 39.6353C107.723 39.8953 110.743 38.3153 112.663 39.2753C116.953 41.4253 120.983 39.1653 125.123 39.6153C128.773 40.0153 132.553 39.2153 136.283 38.9453C136.933 38.8953 137.653 38.6953 138.213 38.9053C144.593 41.3453 150.913 38.8353 157.253 38.9053C163.333 38.9653 169.373 39.1753 175.513 41.0353C182.793 43.2453 190.703 43.3853 198.333 44.4253L198.643 42.9053C193.823 41.1953 188.993 39.5253 184.213 37.7253C183.423 37.4253 182.913 36.4353 182.163 35.9453C179.983 34.5153 177.773 33.1453 175.533 31.8153C174.423 31.1553 173.253 30.5953 172.083 30.0553C170.063 29.1253 168.083 28.0953 165.983 27.3853C158.263 24.7553 151.473 20.3353 144.983 15.6453C143.113 14.2853 140.453 13.1453 139.463 11.5953C137.793 8.98533 137.213 5.30533 137.373 2.13533C137.413 1.27533 141.913 -0.344672 144.043 0.065328C148.853 0.995328 153.643 2.57533 158.093 4.62533C163.563 7.14533 168.683 10.4253 173.963 13.3553C174.833 13.8353 175.713 14.4653 176.653 14.6253C182.063 15.5253 186.383 17.9653 190.983 21.2353C199.613 27.3653 209.383 31.9153 218.793 36.8953C222.563 38.8853 223.603 41.4053 221.663 45.3053C220.943 46.7553 220.873 48.5353 220.103 49.9353C218.573 52.6853 216.753 55.2753 215.063 57.9353C212.623 61.7853 210.253 65.6853 207.713 69.4653C206.713 70.9553 205.583 72.5753 204.123 73.4853C197.713 77.4853 194.483 83.8753 190.643 89.9753C188.833 92.8553 185.273 94.5753 182.693 97.0253C179.783 99.7953 177.393 103.205 174.193 105.535C171.733 107.335 168.373 108.745 165.403 108.775C161.993 108.805 160.843 105.555 161.693 102.465C163.283 96.6253 164.723 90.9153 170.253 86.7953C172.983 84.7653 174.033 80.4153 178.283 79.7053C178.503 79.6653 178.783 79.1953 178.793 78.9153C179.213 70.4353 185.883 65.6853 190.273 59.5753C190.813 58.8153 191.103 57.8753 191.613 56.7953H191.603Z" fill="#0C97FA"/>
</svg>
