<svg width="310" height="310" viewBox="0 0 310 310" fill="none" xmlns="http://www.w3.org/2000/svg">
<path d="M154.998 0C112.89 0 107.633 0.193747 91.1 0.929987C74.5927 1.70498 63.3554 4.30119 53.4742 8.13739C43.2831 12.0898 34.6291 17.3985 26.0138 26.0138C17.3985 34.6291 12.0769 43.2702 8.13739 53.4742C4.30119 63.3554 1.69206 74.5927 0.929987 91.1C0.154998 107.633 0 112.89 0 154.998C0 197.106 0.193747 202.363 0.929987 218.896C1.70498 235.39 4.30119 246.64 8.13739 256.521C12.029 266.866 18.1295 276.237 26.0138 283.982C33.7544 291.872 43.1268 297.973 53.4742 301.858C63.3683 305.682 74.6056 308.304 91.1 309.066C107.633 309.841 112.89 309.996 154.998 309.996C197.106 309.996 202.363 309.802 218.896 309.066C235.39 308.291 246.64 305.682 256.521 301.858C266.863 297.962 276.233 291.862 283.982 283.982C291.874 276.243 297.976 266.87 301.858 256.521C305.682 246.64 308.304 235.39 309.066 218.896C309.841 202.363 309.996 197.106 309.996 154.998C309.996 112.89 309.802 107.633 309.066 91.1C308.291 74.6056 305.682 63.3424 301.858 53.4742C297.965 43.131 291.865 33.7602 283.982 26.0138C276.247 18.1172 266.873 12.0148 256.521 8.13739C246.64 4.30119 235.39 1.69206 218.896 0.929987C202.363 0.154998 197.106 0 154.998 0ZM154.998 27.8996C196.369 27.8996 201.303 28.1063 217.643 28.8167C232.755 29.5271 240.957 32.0329 246.408 34.177C253.667 36.9799 258.808 40.3382 264.258 45.7502C269.67 51.1751 273.029 56.3288 275.832 63.5879C277.95 69.0386 280.481 77.2406 281.166 92.3529C281.902 108.705 282.07 113.613 282.07 154.998C282.07 196.382 281.876 201.303 281.114 217.643C280.326 232.755 277.808 240.957 275.677 246.408C273.155 253.134 269.192 259.227 264.065 264.258C259.055 269.39 252.966 273.343 246.24 275.832C240.815 277.95 232.484 280.481 217.372 281.166C200.916 281.902 196.072 282.07 154.61 282.07C113.136 282.07 108.292 281.876 91.8491 281.114C76.7239 280.326 68.3928 277.808 62.9679 275.677C56.2371 273.186 50.1505 269.218 45.156 264.065C39.9711 259.088 35.9945 252.991 33.5312 246.24C31.4 240.815 28.8942 232.484 28.1063 217.372C27.525 201.097 27.3184 196.072 27.3184 154.804C27.3184 113.523 27.525 108.486 28.1063 92.017C28.8942 76.9048 31.4 68.5865 33.5312 63.1616C36.2437 55.7992 39.7182 50.7618 45.156 45.3239C50.568 39.9119 55.6184 36.4245 62.9679 33.7249C68.3928 31.5808 76.5431 29.0621 91.6554 28.2871C108.124 27.7059 112.968 27.5121 154.417 27.5121L154.998 27.8996ZM154.998 75.4064C144.546 75.4064 134.196 77.4651 124.54 81.465C114.883 85.4648 106.109 91.3275 98.7182 98.7182C91.3275 106.109 85.4648 114.883 81.465 124.54C77.4651 134.196 75.4064 144.546 75.4064 154.998C75.4064 165.45 77.4651 175.8 81.465 185.456C85.4648 195.113 91.3275 203.887 98.7182 211.277C106.109 218.668 114.883 224.531 124.54 228.531C134.196 232.531 144.546 234.589 154.998 234.589C176.107 234.589 196.351 226.204 211.277 211.277C226.204 196.351 234.589 176.107 234.589 154.998C234.589 133.889 226.204 113.644 211.277 98.7182C196.351 83.7919 176.107 75.4064 154.998 75.4064ZM154.998 206.664C126.452 206.664 103.332 183.543 103.332 154.998C103.332 126.452 126.452 103.332 154.998 103.332C183.543 103.332 206.664 126.452 206.664 154.998C206.664 183.543 183.543 206.664 154.998 206.664ZM256.341 72.2677C256.161 77.0807 254.123 81.6368 250.655 84.9785C247.186 88.3201 242.557 90.1871 237.741 90.1871C232.924 90.1871 228.296 88.3201 224.827 84.9785C221.359 81.6368 219.32 77.0807 219.141 72.2677C219.141 67.3348 221.101 62.6039 224.589 59.1157C228.077 55.6276 232.808 53.668 237.741 53.668C242.674 53.668 247.405 55.6276 250.893 59.1157C254.381 62.6039 256.341 67.3348 256.341 72.2677Z" fill="#F2F2F2"/>
</svg>
