<svg width="310" height="357" viewBox="0 0 310 357" fill="none" xmlns="http://www.w3.org/2000/svg">
<path d="M162.81 0.297345C182.286 0 201.613 0.148673 220.941 0C222.13 22.7469 230.307 45.9398 246.959 61.9965C263.61 78.4991 287.1 86.0814 309.996 88.6088V148.524C288.587 147.781 267.029 143.32 247.553 134.103C239.079 130.237 231.199 125.331 223.468 120.276C223.32 163.688 223.617 207.101 223.171 250.365C221.982 271.179 215.143 291.844 203.1 308.942C183.624 337.487 149.875 356.071 115.235 356.665C93.9745 357.855 72.7143 352.057 54.5762 341.352C24.5444 323.66 3.43287 291.25 0.310751 256.46C0.0134057 249.027 -0.135267 241.593 0.162078 234.308C2.83818 206.06 16.8134 179.002 38.5196 160.566C63.1992 139.158 97.6913 128.899 129.953 134.995C130.251 156.998 129.359 179.002 129.359 201.005C114.64 196.248 97.3939 197.586 84.4594 206.506C75.093 212.602 67.9568 221.968 64.2399 232.524C61.1178 240.106 62.0099 248.432 62.1585 256.46C65.7267 280.842 89.2169 301.359 114.194 299.129C130.845 298.98 146.753 289.317 155.376 275.193C158.201 270.287 161.323 265.232 161.472 259.434C162.959 232.821 162.364 206.357 162.512 179.745C162.661 119.83 162.364 60.0637 162.81 0.297345Z" fill="#F2F2F2"/>
</svg>
