<svg width="310" height="252" viewBox="0 0 310 252" fill="none" xmlns="http://www.w3.org/2000/svg">
<path d="M309.389 30.0103C297.783 35.1199 285.489 38.4927 272.901 40.0201C286.154 32.0542 296.078 19.5619 300.838 4.85C288.555 12.0184 274.942 17.2364 260.45 20.1425C250.889 9.9186 238.22 3.13763 224.41 0.852537C210.6 -1.43255 196.422 0.906126 184.077 7.5054C171.733 14.1047 161.913 24.5953 156.142 37.3481C150.371 50.101 148.972 64.4025 152.163 78.0318C99.3366 75.539 52.5162 50.1721 21.1822 11.8246C15.4836 21.5092 12.5112 32.555 12.5801 43.7916C12.5801 65.8779 23.817 85.2905 40.8402 96.6953C30.751 96.3742 20.8847 93.6463 12.0635 88.7391V89.527C12.0578 104.205 17.13 118.432 26.4197 129.796C35.7093 141.159 48.6442 148.959 63.0298 151.872C53.7084 154.37 43.9454 154.745 34.4597 152.97C38.5444 165.601 46.4694 176.642 57.1292 184.554C67.789 192.465 80.6522 196.853 93.9248 197.104C71.4444 214.746 43.6877 224.321 15.1117 224.292C10.0744 224.292 5.05014 223.995 0 223.427C29.1346 242.081 63.0106 251.984 97.6058 251.958C214.547 251.958 278.416 155.14 278.416 71.3155C278.416 68.616 278.416 65.8908 278.222 63.1784C290.699 54.1999 301.461 43.0529 309.996 30.2686L309.389 30.0103Z" fill="#F2F2F2"/>
</svg>
